<?xml version="1.0"?>
<svg xmlns:rdf="http://www.w3.org/1999/02/22-rdf-syntax-ns#" xmlns="http://www.w3.org/2000/svg" xmlns:cc="http://creativecommons.org/ns#" xmlns:dc="http://purl.org/dc/elements/1.1/" xmlns:svg="http://www.w3.org/2000/svg" id="svg2" viewBox="0 0 757 464" version="1.1">
  <rect id="rect2818" height="464" width="757" y=".0000016504" x="-.0000035352" fill="#fff"/>
  <rect id="rect3691" y=".60016" width="757" x="-.0000035352" height="35.6"/>
  <rect id="rect3709" y="71.8" width="757" x="-.0000035352" height="35.6"/>
  <rect id="rect3737" y="143" width="757" x="-.0000035352" height="35.6"/>
  <rect id="rect3739" y="214.2" width="757" x="-.0000035352" height="35.6"/>
  <rect id="rect3741" y="285.4" width="757" x="-.0000035352" height="35.6"/>
  <rect id="rect3743" y="356.6" width="757" x="-.0000035352" height="35.6"/>
  <rect id="rect3745" y="427.8" width="757" x="-.0000035352" height="35.6"/>
  <rect id="rect3601" height="179.64" width="258.61" y=".0000016504" x="-.0000035352" fill="#da251d"/>
  <path id="path3681" transform="matrix(1.0238 0 0 1.0238 -202.17 -79.297)" fill="#fff" d="m397.82 165.19a74.033 74.033 0 1 1 -148.07 0 74.033 74.033 0 1 1 148.07 0z"/>
  <path id="path633" d="m108.23 24.649 1.4537-0.24228-0.24228 1.696 1.4537 1.2114 0.48455 1.4537-0.96912 2.1805-0.24227 2.1805 0.96912 2.9074 2.1805 1.4537 2.9074-0.48455 3.6342-1.696 4.1187 0.72685-0.48456-1.9382 2.4228-0.48456 0.72683-0.72683 2.9074 1.696 1.9382-0.48456 2.6651 0.24228 1.9382-2.1805 0.24227-1.696 2.6651-2.6651 2.1805 2.4228 0.24227 3.1496 1.4537 2.9074 1.696 0.72684-1.4537 2.665-2.4228 2.4228-0.96911 1.2114 0.24228 2.1805h1.4537l0.96912-2.9074h3.1496l3.6342 0.24227v1.696l-0.72683 1.696-1.696 1.2114 2.4228-0.48456 1.2114-2.1805 2.6651-0.48457 5.8147 2.1805 1.4537 1.4537 1.696-0.48455 0.96911 1.9382v1.696l0.72683 0.72684 2.6651-0.96912 2.9073 0.96912 3.8765 0.96912 4.361-0.24229 5.0879 3.3919 2.4228 2.1805 3.1496 2.4228 4.1188 1.2114 1.9382 2.6651 0.72684 4.1187-0.96911 4.361-3.3919 3.8764-2.1805 2.1805-2.9074 3.3919-2.1805 3.6342-2.4228 0.96912-1.4537 1.9382 0.24228 2.6651v3.6342l-0.72684 4.361-1.2114 3.8765-1.9382 2.9073 0.24228 2.4228-2.6651 3.1496-1.9382 2.9074v2.4228l-2.9074 1.4537-0.72684 0.96911v0.48456l-2.4228 0.24228-3.3919-0.72684-1.696 0.96912-1.696 0.24228-1.4537 0.96912-0.72683 0.96912h-1.9382l-3.6342 2.6651-1.9382 1.9382-1.9382 1.2114-0.72684 3.3919 0.48455 2.4228-0.72684 3.1496-2.4228 2.4228-1.696 3.3919-3.1496 4.8456-2.6651 1.4537-1.9382 2.9073-1.2114 2.4228-1.2114 0.24228-0.48455-2.1805 1.4537-1.4537-1.4537-1.4537-0.96912-0.96911-3.8765-2.4228-0.48455-1.4537-1.4537 0.96912-2.4228-2.9074h-1.9382l0.72684-1.4537 3.6342-4.1187 4.1187-3.3919 2.1805-1.4537 0.48456-3.1496-0.96912-1.6959-1.696-0.48456 0.96912-3.6342-0.96912-2.1805-2.4228 0.72684-1.2114-5.5724-2.6651-0.72684-4.1188 0.24227 0.24229-3.8764-1.2114-3.3919 1.9382-5.8147-0.96912-2.4228-1.9382-1.4537v-2.6651h-6.057l-0.96912-3.6342 0.72683-0.72683-0.48455-3.3919s-2.4228-1.6959-2.9073-1.6959c-0.48457 0-4.8456-0.96913-4.8456-0.96913l-2.891-2.435s-1.4537 0.72684-2.4228 0.24228c-0.96911-0.48455-3.6342-3.8765-3.6342-3.8765v-5.0878l-4.6033 1.2114-2.1805 2.665h-2.1805l-2.1805 1.9382-3.8765-0.72684-1.2114 0.48456-1.4537-1.4537 0.24228-3.8764-1.9382 1.9382h-3.3919l-0.48455-1.6959-2.6651-0.24227 0.72684-1.4537-3.8765-4.6033 0.72684-2.4228 2.4228-0.96913-0.48455-1.6959 0.48455-3.1496 6.2993-3.6342 2.9073 0.72684 2.6651-10.903-0.96911-2.6651-1.9382-0.96912 0.48456-2.4228 2.9073-0.48455-0.96912-1.4537h-1.2114v-1.696l5.5724-1.4537 0.72684 1.2114 1.9382-1.9382 1.2114 2.6651 2.1805 1.696 3.1496-0.72684 4.6033-2.1805 2.1805-1.9382-0.96912-1.2114-2.1805-2.9074-1.2114-2.6651 3.1496 0.96911 2.9074 0.72683 1.696-1.9382 3.8765-1.2114 2.4228-2.1805z" fill="#3f3272"/>
  <g id="g3701" transform="translate(-181.94 -72.286)" fill="#fff500">
    <path id="path3693" transform="matrix(1.0566 .30899 -.30899 1.0566 37.901 -40.533)" d="m206.94 96.511-13.231-2.7176-9.7395 9.3585-1.5039-13.423-11.91-6.3708 12.301-5.5782 2.3786-13.296 9.1066 9.9755 13.38-1.8465-6.6732 11.743 5.8908 12.155z"/>
    <path id="path3695" d="m206.94 96.511-13.231-2.7176-9.7395 9.3585-1.5039-13.423-11.91-6.3708 12.301-5.5782 2.3786-13.296 9.1066 9.9755 13.38-1.8465-6.6732 11.743 5.8908 12.155z" transform="matrix(1.0566 .30899 -.30899 1.0566 233.1 -40.533)"/>
    <path id="path3697" d="m206.94 96.511-13.231-2.7176-9.7395 9.3585-1.5039-13.423-11.91-6.3708 12.301-5.5782 2.3786-13.296 9.1066 9.9755 13.38-1.8465-6.6732 11.743 5.8908 12.155z" transform="matrix(1.0566 .30899 -.30899 1.0566 37.901 73.467)"/>
    <path id="path3699" transform="matrix(1.0566 .30899 -.30899 1.0566 233.1 73.467)" d="m206.94 96.511-13.231-2.7176-9.7395 9.3585-1.5039-13.423-11.91-6.3708 12.301-5.5782 2.3786-13.296 9.1066 9.9755 13.38-1.8465-6.6732 11.743 5.8908 12.155z"/>
  </g>
  <metadata>
    <rdf:RDF>
      <cc:Work>
        <dc:format>image/svg+xml</dc:format>
        <dc:type rdf:resource="http://purl.org/dc/dcmitype/StillImage"/>
        <cc:license rdf:resource="http://creativecommons.org/licenses/publicdomain/"/>
        <dc:publisher>
          <cc:Agent rdf:about="http://openclipart.org/">
            <dc:title>Openclipart</dc:title>
          </cc:Agent>
        </dc:publisher>
        <dc:title>Bandeira de S&#xC3;&#xA3;o Paulo - Brasil</dc:title>
        <dc:date>2010-06-07T04:36:03</dc:date>
        <dc:description>Estado de S&#xC3;&#xA3;o Paulo - Brasil</dc:description>
        <dc:source>http://openclipart.org/detail/64783/s&#xE3;o-paulo---brasil-by-leandrosciola</dc:source>
        <dc:creator>
          <cc:Agent>
            <dc:title>leandrosciola</dc:title>
          </cc:Agent>
        </dc:creator>
        <dc:subject>
          <rdf:Bag>
            <rdf:li>Bandeira</rdf:li>
            <rdf:li>Brasil</rdf:li>
            <rdf:li>Brazil</rdf:li>
            <rdf:li>Estado</rdf:li>
            <rdf:li>Flag</rdf:li>
            <rdf:li>Regi&#xC3;&#xA3;o</rdf:li>
            <rdf:li>Sudeste</rdf:li>
            <rdf:li>S&#xC3;&#xA3;o Paulo</rdf:li>
            <rdf:li>clip art</rdf:li>
            <rdf:li>clipart</rdf:li>
          </rdf:Bag>
        </dc:subject>
      </cc:Work>
      <cc:License rdf:about="http://creativecommons.org/licenses/publicdomain/">
        <cc:permits rdf:resource="http://creativecommons.org/ns#Reproduction"/>
        <cc:permits rdf:resource="http://creativecommons.org/ns#Distribution"/>
        <cc:permits rdf:resource="http://creativecommons.org/ns#DerivativeWorks"/>
      </cc:License>
    </rdf:RDF>
  </metadata>
</svg>
